/* XPM */
static char *fr[] = {
/* columns rows colors chars-per-pixel */
"90 60 3 1",
"  c #002395",
". c #ED2939",
"X c gray100",
/* pixels */
"                              XXXXXXXXXXXXXXXXXXXXXXXXXXXXXX..............................",
"                              XXXXXXXXXXXXXXXXXXXXXXXXXXXXXX..............................",
"                              XXXXXXXXXXXXXXXXXXXXXXXXXXXXXX..............................",
"                              XXXXXXXXXXXXXXXXXXXXXXXXXXXXXX..............................",
"                              XXXXXXXXXXXXXXXXXXXXXXXXXXXXXX..............................",
"                              XXXXXXXXXXXXXXXXXXXXXXXXXXXXXX..............................",
"                              XXXXXXXXXXXXXXXXXXXXXXXXXXXXXX..............................",
"                              XXXXXXXXXXXXXXXXXXXXXXXXXXXXXX..............................",
"                              XXXXXXXXXXXXXXXXXXXXXXXXXXXXXX..............................",
"                              XXXXXXXXXXXXXXXXXXXXXXXXXXXXXX..............................",
"                              XXXXXXXXXXXXXXXXXXXXXXXXXXXXXX..............................",
"                              XXXXXXXXXXXXXXXXXXXXXXXXXXXXXX..............................",
"                              XXXXXXXXXXXXXXXXXXXXXXXXXXXXXX..............................",
"                              XXXXXXXXXXXXXXXXXXXXXXXXXXXXXX..............................",
"                              XXXXXXXXXXXXXXXXXXXXXXXXXXXXXX..............................",
"                              XXXXXXXXXXXXXXXXXXXXXXXXXXXXXX..............................",
"                              XXXXXXXXXXXXXXXXXXXXXXXXXXXXXX..............................",
"                              XXXXXXXXXXXXXXXXXXXXXXXXXXXXXX..............................",
"                              XXXXXXXXXXXXXXXXXXXXXXXXXXXXXX..............................",
"                              XXXXXXXXXXXXXXXXXXXXXXXXXXXXXX..............................",
"                              XXXXXXXXXXXXXXXXXXXXXXXXXXXXXX..............................",
"                              XXXXXXXXXXXXXXXXXXXXXXXXXXXXXX..............................",
"                              XXXXXXXXXXXXXXXXXXXXXXXXXXXXXX..............................",
"                              XXXXXXXXXXXXXXXXXXXXXXXXXXXXXX..............................",
"                              XXXXXXXXXXXXXXXXXXXXXXXXXXXXXX..............................",
"                              XXXXXXXXXXXXXXXXXXXXXXXXXXXXXX..............................",
"                              XXXXXXXXXXXXXXXXXXXXXXXXXXXXXX..............................",
"                              XXXXXXXXXXXXXXXXXXXXXXXXXXXXXX..............................",
"                              XXXXXXXXXXXXXXXXXXXXXXXXXXXXXX..............................",
"                              XXXXXXXXXXXXXXXXXXXXXXXXXXXXXX..............................",
"                              XXXXXXXXXXXXXXXXXXXXXXXXXXXXXX..............................",
"                              XXXXXXXXXXXXXXXXXXXXXXXXXXXXXX..............................",
"                              XXXXXXXXXXXXXXXXXXXXXXXXXXXXXX..............................",
"                              XXXXXXXXXXXXXXXXXXXXXXXXXXXXXX..............................",
"                              XXXXXXXXXXXXXXXXXXXXXXXXXXXXXX..............................",
"                              XXXXXXXXXXXXXXXXXXXXXXXXXXXXXX..............................",
"                              XXXXXXXXXXXXXXXXXXXXXXXXXXXXXX..............................",
"                              XXXXXXXXXXXXXXXXXXXXXXXXXXXXXX..............................",
"                              XXXXXXXXXXXXXXXXXXXXXXXXXXXXXX..............................",
"                              XXXXXXXXXXXXXXXXXXXXXXXXXXXXXX..............................",
"                              XXXXXXXXXXXXXXXXXXXXXXXXXXXXXX..............................",
"                              XXXXXXXXXXXXXXXXXXXXXXXXXXXXXX..............................",
"                              XXXXXXXXXXXXXXXXXXXXXXXXXXXXXX..............................",
"                              XXXXXXXXXXXXXXXXXXXXXXXXXXXXXX..............................",
"                              XXXXXXXXXXXXXXXXXXXXXXXXXXXXXX..............................",
"                              XXXXXXXXXXXXXXXXXXXXXXXXXXXXXX..............................",
"                              XXXXXXXXXXXXXXXXXXXXXXXXXXXXXX..............................",
"                              XXXXXXXXXXXXXXXXXXXXXXXXXXXXXX..............................",
"                              XXXXXXXXXXXXXXXXXXXXXXXXXXXXXX..............................",
"                              XXXXXXXXXXXXXXXXXXXXXXXXXXXXXX..............................",
"                              XXXXXXXXXXXXXXXXXXXXXXXXXXXXXX..............................",
"                              XXXXXXXXXXXXXXXXXXXXXXXXXXXXXX..............................",
"                              XXXXXXXXXXXXXXXXXXXXXXXXXXXXXX..............................",
"                              XXXXXXXXXXXXXXXXXXXXXXXXXXXXXX..............................",
"                              XXXXXXXXXXXXXXXXXXXXXXXXXXXXXX..............................",
"                              XXXXXXXXXXXXXXXXXXXXXXXXXXXXXX..............................",
"                              XXXXXXXXXXXXXXXXXXXXXXXXXXXXXX..............................",
"                              XXXXXXXXXXXXXXXXXXXXXXXXXXXXXX..............................",
"                              XXXXXXXXXXXXXXXXXXXXXXXXXXXXXX..............................",
"                              XXXXXXXXXXXXXXXXXXXXXXXXXXXXXX.............................."
};
