/* XPM */
static char * C:\Temp\se_xpm[] = {
"90 60 2 1",
" 	c #006AA7",
".	c #FECC00",
"                           ............                                                   ",
"                           ............                                                   ",
"                           ............                                                   ",
"                           ............                                                   ",
"                           ............                                                   ",
"                           ............                                                   ",
"                           ............                                                   ",
"                           ............                                                   ",
"                           ............                                                   ",
"                           ............                                                   ",
"                           ............                                                   ",
"                           ............                                                   ",
"                           ............                                                   ",
"                           ............                                                   ",
"                           ............                                                   ",
"                           ............                                                   ",
"                           ............                                                   ",
"                           ............                                                   ",
"                           ............                                                   ",
"                           ............                                                   ",
"                           ............                                                   ",
"                           ............                                                   ",
"                           ............                                                   ",
"                           ............                                                   ",
"..........................................................................................",
"..........................................................................................",
"..........................................................................................",
"..........................................................................................",
"..........................................................................................",
"..........................................................................................",
"..........................................................................................",
"..........................................................................................",
"..........................................................................................",
"..........................................................................................",
"..........................................................................................",
"..........................................................................................",
"                           ............                                                   ",
"                           ............                                                   ",
"                           ............                                                   ",
"                           ............                                                   ",
"                           ............                                                   ",
"                           ............                                                   ",
"                           ............                                                   ",
"                           ............                                                   ",
"                           ............                                                   ",
"                           ............                                                   ",
"                           ............                                                   ",
"                           ............                                                   ",
"                           ............                                                   ",
"                           ............                                                   ",
"                           ............                                                   ",
"                           ............                                                   ",
"                           ............                                                   ",
"                           ............                                                   ",
"                           ............                                                   ",
"                           ............                                                   ",
"                           ............                                                   ",
"                           ............                                                   ",
"                           ............                                                   ",
"                           ............                                                   "};
